<svg width="18" height="18" viewBox="0 0 18 18" fill="none" xmlns="http://www.w3.org/2000/svg">
<path d="M5.66735 9C5.66735 7.5273 6.93554 6.33312 8.50034 6.33312C10.0651 6.33312 11.334 7.5273 11.334 9C11.334 10.4727 10.0651 11.6669 8.50034 11.6669C6.93554 11.6669 5.66735 10.4727 5.66735 9ZM4.13551 9C4.13551 11.2688 6.08962 13.1079 8.50034 13.1079C10.9111 13.1079 12.8652 11.2688 12.8652 9C12.8652 6.73118 10.9111 4.89208 8.50034 4.89208C6.08962 4.89208 4.13551 6.73118 4.13551 9ZM12.0179 4.72924C12.0179 5.25913 12.4745 5.6895 13.0382 5.6895C13.6012 5.6895 14.0585 5.25913 14.0585 4.72924C14.0585 4.19935 13.6019 3.76963 13.0382 3.76963C12.4745 3.76963 12.0179 4.19935 12.0179 4.72924ZM5.06587 15.5118C4.23713 15.4763 3.7867 15.3464 3.48734 15.2365C3.09047 15.0911 2.80759 14.9179 2.50959 14.6381C2.21229 14.3583 2.02759 14.0921 1.87378 13.7186C1.75706 13.4368 1.61905 13.0129 1.58128 12.233C1.54009 11.3897 1.53185 11.1363 1.53185 9C1.53185 6.86365 1.54077 6.61099 1.58128 5.76704C1.61905 4.98708 1.75774 4.56381 1.87378 4.28142C2.02827 3.90792 2.21229 3.64168 2.50959 3.36123C2.8069 3.08142 3.08979 2.90759 3.48734 2.76284C3.7867 2.65299 4.23713 2.5231 5.06587 2.48756C5.96191 2.44879 6.23107 2.44103 8.50034 2.44103C10.7703 2.44103 11.0388 2.44943 11.9355 2.48756C12.7642 2.5231 13.214 2.65363 13.514 2.76284C13.9109 2.90759 14.1938 3.08142 14.4918 3.36123C14.7891 3.64103 14.9731 3.90792 15.1276 4.28142C15.2443 4.56317 15.3823 4.98708 15.4201 5.76704C15.4613 6.61099 15.4695 6.86365 15.4695 9C15.4695 11.1357 15.4613 11.389 15.4201 12.233C15.3823 13.0129 15.2436 13.4368 15.1276 13.7186C14.9731 14.0921 14.7891 14.3583 14.4918 14.6381C14.1945 14.9179 13.9109 15.0911 13.514 15.2365C13.2147 15.3464 12.7642 15.4763 11.9355 15.5118C11.0395 15.5506 10.7703 15.5583 8.50034 15.5583C6.23107 15.5583 5.96191 15.5506 5.06587 15.5118ZM4.99584 1.04847C4.09088 1.08724 3.47292 1.22229 2.93255 1.42003C2.37364 1.62423 1.89987 1.89822 1.42679 2.34281C0.9544 2.7874 0.663274 3.23328 0.446302 3.75994C0.236197 4.2685 0.0926936 4.85008 0.0514964 5.70178C0.00961267 6.55477 0 6.82746 0 9C0 11.1725 0.00961267 11.4452 0.0514964 12.2982C0.0926936 13.1499 0.236197 13.7315 0.446302 14.2401C0.663274 14.7661 0.953714 15.2126 1.42679 15.6572C1.89919 16.1018 2.37296 16.3751 2.93255 16.58C3.47361 16.7777 4.09088 16.9128 4.99584 16.9515C5.90286 16.9903 6.19193 17 8.50034 17C10.8094 17 11.0985 16.991 12.0048 16.9515C12.9098 16.9128 13.5278 16.7777 14.0681 16.58C14.627 16.3751 15.1008 16.1018 15.5739 15.6572C16.0463 15.2126 16.3367 14.7661 16.5544 14.2401C16.7645 13.7315 16.9087 13.1499 16.9492 12.2982C16.9904 11.4446 17 11.1725 17 9C17 6.82746 16.9904 6.55477 16.9492 5.70178C16.908 4.85008 16.7645 4.2685 16.5544 3.75994C16.3367 3.23393 16.0463 2.78805 15.5739 2.34281C15.1015 1.89822 14.627 1.62423 14.0688 1.42003C13.5278 1.22229 12.9098 1.08659 12.0055 1.04847C11.0992 1.00969 10.8094 1 8.50103 1C6.19193 1 5.90286 1.00905 4.99584 1.04847Z" fill="white"/>
</svg>
