<svg width="18" height="18" viewBox="0 0 18 18" fill="none" xmlns="http://www.w3.org/2000/svg">
<path d="M1 4.5101C1 4.07238 1.16892 3.71127 1.50676 3.42677C1.84459 3.14225 2.28379 3 2.82432 3C3.35522 3 3.78474 3.14006 4.11293 3.4202C4.45077 3.70909 4.61969 4.08551 4.61969 4.54949C4.61969 4.9697 4.4556 5.31986 4.12741 5.6C3.78958 5.88889 3.34556 6.03333 2.79537 6.03333H2.78089C2.25 6.03333 1.82047 5.88889 1.49228 5.6C1.16409 5.31111 1 4.94781 1 4.5101ZM1.18822 16V7.22828H4.40251V16H1.18822ZM6.1834 16H9.39768V11.102C9.39768 10.7956 9.4363 10.5593 9.51351 10.3929C9.64864 10.0953 9.85376 9.84359 10.1289 9.63788C10.404 9.43215 10.749 9.32929 11.1641 9.32929C12.2452 9.32929 12.7857 9.99023 12.7857 11.3121V16H16V10.9707C16 9.67508 15.6622 8.69242 14.9865 8.02273C14.3108 7.35303 13.418 7.01818 12.3079 7.01818C11.0627 7.01818 10.0927 7.50404 9.39768 8.47576V8.50202H9.3832L9.39768 8.47576V7.22828H6.1834C6.2027 7.50841 6.21236 8.37945 6.21236 9.84141C6.21236 11.3034 6.2027 13.3562 6.1834 16Z" fill="white"/>
</svg>
