<svg width="18" height="18" viewBox="0 0 18 18" fill="none" xmlns="http://www.w3.org/2000/svg">
<g clip-path="url(#clip0_307_39)">
<path d="M9.25223 0C4.42127 0 0.504455 3.90559 0.504455 8.72269C0.504455 10.4185 0.997975 11.9966 1.83776 13.3363L0 18L4.69755 16.1588C6.02576 16.97 7.5814 17.4454 9.25223 17.4454C14.0832 17.4454 18 13.5398 18 8.72269C18 3.90559 14.0839 0 9.25223 0ZM9.25223 15.9916C7.91965 15.9916 6.60821 15.6209 5.45861 14.9194L4.83971 14.5415L2.57986 15.4268L3.46266 13.1865L3.07338 12.5658C2.34732 11.4056 1.96242 10.0769 1.96242 8.72269C1.96242 4.71461 5.23263 1.45378 9.25223 1.45378C13.2718 1.45378 16.542 4.71461 16.542 8.72269C16.542 12.7308 13.2726 15.9916 9.25223 15.9916Z" fill="white"/>
<path d="M7.28972 10.6802C8.28697 11.6746 10.5869 13.1211 11.867 12.7329C13.1471 12.3448 13.3388 11.6607 13.3388 11.6607L13.3104 10.6024L11.2233 9.8755C11.2233 9.8755 10.7589 9.91548 10.1269 10.6584C9.27765 10.5457 8.36788 9.6051 8.36788 9.6051C8.36788 9.6051 7.42458 8.69721 7.31159 7.85111C8.05661 7.2209 8.0967 6.75787 8.0967 6.75787L7.36772 4.67678L6.30633 4.64771C6.30633 4.64771 5.62035 4.83815 5.23108 6.1153C4.8418 7.39244 6.29175 9.68506 7.28972 10.6802Z" fill="white"/>
</g>
<defs>
<clipPath id="clip0_307_39">
<rect width="18" height="18" fill="white"/>
</clipPath>
</defs>
</svg>
